<?xml version="1.0" encoding="UTF-8"?>
<svg xmlns="http://www.w3.org/2000/svg" xmlns:xlink="http://www.w3.org/1999/xlink" viewBox="0 0 14 14" width="14px" height="14px">
<g id="surface59023111">
<path style=" stroke:none;fill-rule:nonzero;fill:rgb(100%,100%,100%);fill-opacity:1;" d="M 7 0.558594 C 3.445312 0.558594 0.558594 3.445312 0.558594 7 C 0.558594 10.554688 3.445312 13.441406 7 13.441406 C 10.554688 13.441406 13.441406 10.554688 13.441406 7 C 13.441406 3.445312 10.554688 0.558594 7 0.558594 Z M 7 1.121094 C 10.25 1.121094 12.878906 3.75 12.878906 7 C 12.878906 10.25 10.25 12.878906 7 12.878906 C 3.75 12.878906 1.121094 10.25 1.121094 7 C 1.121094 3.75 3.75 1.121094 7 1.121094 Z M 6.996094 1.957031 C 6.839844 1.957031 6.71875 2.085938 6.71875 2.238281 L 6.71875 6.207031 C 6.382812 6.328125 6.160156 6.644531 6.160156 7 C 6.160156 7.125 6.1875 7.25 6.242188 7.363281 L 4.5625 9.042969 C 4.488281 9.113281 4.460938 9.214844 4.484375 9.316406 C 4.511719 9.414062 4.585938 9.488281 4.683594 9.515625 C 4.785156 9.539062 4.886719 9.511719 4.957031 9.4375 L 6.636719 7.757812 C 6.75 7.8125 6.875 7.839844 7 7.839844 C 7.464844 7.839844 7.839844 7.464844 7.839844 7 C 7.839844 6.644531 7.613281 6.328125 7.28125 6.210938 L 7.28125 2.238281 C 7.28125 2.164062 7.25 2.089844 7.199219 2.039062 C 7.144531 1.984375 7.070312 1.953125 6.996094 1.957031 Z M 6.996094 1.957031 "/>
</g>
</svg>
