<?xml version="1.0" encoding="UTF-8"?>
<svg xmlns="http://www.w3.org/2000/svg" xmlns:xlink="http://www.w3.org/1999/xlink" viewBox="0 0 32 32" width="32px" height="32px">
<g id="surface63426723">
<path style=" stroke:none;fill-rule:nonzero;fill:rgb(100%,100%,100%);fill-opacity:1;" d="M 16 2.132812 C 15.410156 2.132812 14.933594 2.609375 14.933594 3.199219 L 14.933594 3.382812 C 14.933594 3.894531 14.574219 4.347656 14.070312 4.429688 C 13.828125 4.46875 13.585938 4.515625 13.347656 4.570312 C 12.851562 4.683594 12.351562 4.402344 12.15625 3.933594 L 12.085938 3.765625 C 11.859375 3.222656 11.238281 2.964844 10.691406 3.191406 C 10.148438 3.414062 9.886719 4.039062 10.113281 4.582031 L 10.183594 4.753906 C 10.382812 5.222656 10.226562 5.777344 9.792969 6.046875 C 9.582031 6.179688 9.378906 6.3125 9.179688 6.457031 C 8.765625 6.75 8.191406 6.683594 7.832031 6.324219 L 7.703125 6.195312 C 7.285156 5.777344 6.613281 5.777344 6.195312 6.195312 C 5.78125 6.613281 5.78125 7.289062 6.195312 7.703125 L 6.324219 7.832031 C 6.683594 8.191406 6.75 8.765625 6.457031 9.179688 C 6.3125 9.378906 6.179688 9.582031 6.046875 9.792969 C 5.777344 10.226562 5.222656 10.382812 4.753906 10.1875 L 4.582031 10.117188 C 4.039062 9.890625 3.414062 10.148438 3.1875 10.695312 C 2.960938 11.238281 3.21875 11.863281 3.765625 12.085938 L 3.929688 12.15625 C 4.398438 12.351562 4.683594 12.851562 4.570312 13.347656 C 4.515625 13.585938 4.464844 13.828125 4.425781 14.070312 C 4.347656 14.574219 3.894531 14.933594 3.382812 14.933594 L 3.199219 14.933594 C 2.609375 14.933594 2.132812 15.410156 2.132812 16 C 2.132812 16.589844 2.609375 17.066406 3.199219 17.066406 L 3.382812 17.066406 C 3.894531 17.066406 4.347656 17.425781 4.429688 17.929688 C 4.46875 18.171875 4.515625 18.414062 4.570312 18.652344 C 4.683594 19.148438 4.402344 19.648438 3.933594 19.84375 L 3.765625 19.914062 C 3.222656 20.140625 2.964844 20.761719 3.191406 21.308594 C 3.414062 21.851562 4.039062 22.113281 4.582031 21.886719 L 4.753906 21.816406 C 5.222656 21.621094 5.78125 21.777344 6.050781 22.207031 C 6.179688 22.417969 6.316406 22.621094 6.457031 22.824219 C 6.753906 23.238281 6.6875 23.808594 6.328125 24.167969 L 6.195312 24.296875 C 5.777344 24.714844 5.777344 25.390625 6.195312 25.804688 C 6.613281 26.222656 7.289062 26.222656 7.703125 25.804688 L 7.835938 25.675781 C 8.195312 25.316406 8.765625 25.25 9.179688 25.542969 C 9.378906 25.6875 9.585938 25.824219 9.792969 25.953125 C 10.226562 26.222656 10.386719 26.78125 10.191406 27.25 L 10.117188 27.417969 C 9.894531 27.960938 10.152344 28.589844 10.695312 28.816406 C 11.238281 29.039062 11.863281 28.78125 12.089844 28.238281 L 12.160156 28.070312 C 12.351562 27.601562 12.851562 27.320312 13.347656 27.433594 C 13.585938 27.488281 13.828125 27.535156 14.074219 27.574219 C 14.574219 27.652344 14.933594 28.105469 14.933594 28.617188 L 14.933594 28.800781 C 14.933594 29.390625 15.410156 29.867188 16 29.867188 C 16.589844 29.867188 17.066406 29.390625 17.066406 28.800781 L 17.066406 28.617188 C 17.066406 28.105469 17.425781 27.652344 17.929688 27.570312 C 18.171875 27.53125 18.414062 27.484375 18.652344 27.429688 C 19.148438 27.316406 19.648438 27.597656 19.84375 28.066406 L 19.914062 28.234375 C 20.140625 28.777344 20.761719 29.035156 21.308594 28.808594 C 21.851562 28.585938 22.113281 27.960938 21.886719 27.417969 L 21.816406 27.246094 C 21.621094 26.777344 21.777344 26.21875 22.207031 25.949219 C 22.417969 25.820312 22.621094 25.683594 22.824219 25.542969 C 23.238281 25.246094 23.808594 25.3125 24.167969 25.671875 L 24.296875 25.804688 C 24.714844 26.222656 25.390625 26.222656 25.804688 25.804688 C 26.222656 25.386719 26.222656 24.710938 25.804688 24.296875 L 25.675781 24.164062 C 25.316406 23.804688 25.25 23.234375 25.542969 22.820312 C 25.6875 22.621094 25.824219 22.414062 25.953125 22.207031 C 26.222656 21.773438 26.78125 21.613281 27.25 21.808594 L 27.417969 21.882812 C 27.960938 22.105469 28.589844 21.847656 28.816406 21.304688 C 29.039062 20.761719 28.78125 20.136719 28.238281 19.910156 L 28.070312 19.839844 C 27.601562 19.648438 27.320312 19.148438 27.433594 18.652344 C 27.488281 18.414062 27.535156 18.171875 27.574219 17.925781 C 27.652344 17.425781 28.105469 17.066406 28.617188 17.066406 L 28.800781 17.066406 C 29.390625 17.066406 29.867188 16.589844 29.867188 16 C 29.867188 15.410156 29.390625 14.933594 28.800781 14.933594 L 28.617188 14.933594 C 28.105469 14.933594 27.652344 14.574219 27.570312 14.070312 C 27.53125 13.828125 27.484375 13.585938 27.429688 13.347656 C 27.316406 12.851562 27.597656 12.351562 28.066406 12.15625 L 28.234375 12.085938 C 28.777344 11.859375 29.035156 11.238281 28.808594 10.691406 C 28.585938 10.148438 27.960938 9.886719 27.417969 10.113281 L 27.246094 10.183594 C 26.777344 10.378906 26.21875 10.222656 25.949219 9.792969 C 25.820312 9.582031 25.683594 9.378906 25.542969 9.175781 C 25.246094 8.761719 25.3125 8.191406 25.671875 7.832031 L 25.804688 7.703125 C 26.222656 7.285156 26.222656 6.609375 25.804688 6.195312 C 25.386719 5.777344 24.710938 5.777344 24.296875 6.195312 L 24.167969 6.324219 C 23.808594 6.683594 23.234375 6.753906 22.820312 6.457031 C 22.621094 6.316406 22.414062 6.179688 22.207031 6.046875 C 21.773438 5.777344 21.617188 5.222656 21.8125 4.753906 L 21.882812 4.582031 C 22.109375 4.039062 21.851562 3.414062 21.304688 3.1875 C 20.761719 2.960938 20.136719 3.21875 19.914062 3.765625 L 19.839844 3.929688 C 19.648438 4.398438 19.148438 4.683594 18.652344 4.570312 C 18.414062 4.515625 18.171875 4.464844 17.925781 4.425781 C 17.425781 4.347656 17.066406 3.894531 17.066406 3.382812 L 17.066406 3.199219 C 17.066406 2.609375 16.589844 2.132812 16 2.132812 Z M 16 7.464844 C 20.351562 7.464844 23.933594 10.726562 24.460938 14.933594 L 17.84375 14.933594 C 17.464844 14.273438 16.761719 13.867188 16 13.867188 C 16 13.867188 16 13.867188 15.996094 13.867188 L 12.691406 8.132812 C 13.707031 7.703125 14.824219 7.464844 16 7.464844 Z M 10.847656 9.207031 L 14.152344 14.933594 C 13.964844 15.257812 13.867188 15.625 13.867188 16 C 13.867188 16.375 13.96875 16.738281 14.152344 17.0625 L 10.847656 22.789062 C 8.796875 21.230469 7.464844 18.773438 7.464844 16 C 7.464844 13.226562 8.796875 10.765625 10.847656 9.207031 Z M 17.847656 17.066406 L 24.460938 17.066406 C 23.933594 21.273438 20.351562 24.535156 16 24.535156 C 14.824219 24.535156 13.707031 24.296875 12.691406 23.867188 L 15.996094 18.132812 C 16 18.132812 16 18.132812 16 18.132812 C 16.761719 18.132812 17.464844 17.726562 17.847656 17.066406 Z M 17.847656 17.066406 "/>
</g>
</svg>
